<?xml version="1.0" encoding="UTF-8" ?>
<!DOCTYPE svg PUBLIC "-//W3C//DTD SVG 1.1//EN" "http://www.w3.org/Graphics/SVG/1.1/DTD/svg11.dtd">
<svg width="88pt" height="99pt" viewBox="0 0 88 99" version="1.1" xmlns="http://www.w3.org/2000/svg">
<path class="test" fill="#fff" d=" M 0.00 0.00 L 88.00 0.00 L 88.00 99.00 L 39.71 99.00 C 41.49 97.58 43.19 95.71 43.68 93.42 C 42.83 92.30 41.09 91.68 41.06 90.09 C 52.61 79.81 63.63 68.36 71.17 54.69 C 75.52 46.89 78.76 37.97 77.61 28.92 C 77.63 26.13 76.03 23.64 76.13 20.86 C 75.86 20.74 75.31 20.51 75.04 20.39 C 72.82 14.99 66.87 11.53 61.08 12.44 C 54.88 13.38 48.97 16.11 43.99 19.92 C 41.87 21.12 40.88 23.59 40.34 25.85 C 47.29 20.98 56.06 15.86 64.79 18.48 C 71.87 21.01 73.95 29.33 74.62 36.01 C 75.68 48.98 67.45 60.14 59.35 69.39 C 54.40 75.08 48.98 80.38 43.08 85.08 C 41.28 86.23 41.82 88.92 40.11 89.99 C 31.34 80.22 23.12 69.84 16.67 58.37 C 10.53 46.94 6.10 33.87 7.95 20.77 C 8.55 15.56 12.47 11.14 17.57 9.90 C 24.61 8.52 32.32 9.54 38.27 13.73 C 40.74 15.01 41.85 17.64 42.77 20.10 C 44.50 18.16 46.47 15.66 45.26 12.93 C 43.15 9.05 39.19 6.59 35.04 5.41 C 28.28 2.79 19.89 3.27 14.34 8.31 C 6.55 15.11 3.44 25.94 4.52 36.02 C 5.92 50.33 12.76 63.54 20.78 75.27 C 26.55 83.52 33.09 91.23 40.24 98.32 L 39.00 99.00 L 0.00 99.00 L 0.00 0.00 Z" />
<path fill="#cb2e47" d=" M 14.34 8.31 C 19.89 3.27 28.28 2.79 35.04 5.41 C 39.19 6.59 43.15 9.05 45.26 12.93 C 46.47 15.66 44.50 18.16 42.77 20.10 C 41.85 17.64 40.74 15.01 38.27 13.73 C 32.32 9.54 24.61 8.52 17.57 9.90 C 12.47 11.14 8.55 15.56 7.95 20.77 C 6.10 33.87 10.53 46.94 16.67 58.37 C 23.12 69.84 31.34 80.22 40.11 89.99 C 41.82 88.92 41.28 86.23 43.08 85.08 C 48.98 80.38 54.40 75.08 59.35 69.39 C 67.45 60.14 75.68 48.98 74.62 36.01 C 73.95 29.33 71.87 21.01 64.79 18.48 C 56.06 15.86 47.29 20.98 40.34 25.85 C 40.88 23.59 41.87 21.12 43.99 19.92 C 48.97 16.11 54.88 13.38 61.08 12.44 C 66.87 11.53 72.82 14.99 75.04 20.39 C 75.31 20.51 75.86 20.74 76.13 20.86 C 76.03 23.64 77.63 26.13 77.61 28.92 C 78.76 37.97 75.52 46.89 71.17 54.69 C 63.63 68.36 52.61 79.81 41.06 90.09 C 41.09 91.68 42.83 92.30 43.68 93.42 C 43.19 95.71 41.49 97.58 39.71 99.00 L 39.00 99.00 L 40.24 98.32 C 33.09 91.23 26.55 83.52 20.78 75.27 C 12.76 63.54 5.92 50.33 4.52 36.02 C 3.44 25.94 6.55 15.11 14.34 8.31 Z" />
</svg>
